<svg width="300" height="300" viewBox="0 0 300 300" fill="none" xmlns="http://www.w3.org/2000/svg">
<path d="M300 150C300 232.843 232.842 300 150 300C67.1572 300 0 232.843 0 150C0 67.1579 67.1572 -5.80863e-06 150 -5.80863e-06C232.842 -5.80863e-06 300 67.1579 300 150Z" fill="#F2E6DC"/>
<path d="M225.942 102.48C225.942 101.273 226.92 100.294 228.125 100.294C229.333 100.294 230.311 101.273 230.311 102.48C230.311 103.686 229.333 104.664 228.125 104.664C226.92 104.664 225.942 103.686 225.942 102.48Z" fill="white"/>
<path d="M229.645 91.2655C229.645 88.1492 232.172 85.6245 235.286 85.6245C238.401 85.6245 240.927 88.1492 240.927 91.2655C240.927 94.3801 238.401 96.9066 235.286 96.9066C232.172 96.9066 229.645 94.3801 229.645 91.2655Z" fill="white"/>
<path d="M225.912 53.2236C225.912 34.2422 241.299 18.855 260.278 18.855C279.26 18.855 294.645 34.2422 294.645 53.2236C294.645 72.203 279.26 87.5902 260.278 87.5902C241.299 87.5902 225.912 72.203 225.912 53.2236Z" fill="white"/>
<path d="M260.634 69.0437C260.151 68.7898 254.554 66.0335 242.499 67.1004V70.2068H278.861V67.1004C266.388 65.9967 260.773 68.97 260.634 69.0437Z" fill="#EFBC73"/>
<path d="M241.059 66.8725H250.405C253.896 66.8725 257.306 67.5273 260.547 68.8196V43.4942C257.5 41.9171 254.076 41.0821 250.645 41.0821H241.059V66.8725ZM260.654 69.1993C260.625 69.1993 260.596 69.1935 260.57 69.1838C257.325 67.8683 253.906 67.1999 250.405 67.1999H240.732V40.7547H250.645C254.163 40.7547 257.67 41.6169 260.785 43.2501L260.875 43.2965V68.9784C260.875 69.0521 260.838 69.1199 260.776 69.1605C260.741 69.1857 260.696 69.1993 260.654 69.1993" fill="#EFBC73"/>
<path d="M260.841 43.4946V68.8212C264.084 67.5283 267.495 66.8737 270.985 66.8737H280.329V41.0818H270.746C267.312 41.0818 263.89 41.9156 260.841 43.4946V43.4946ZM260.757 69.1897C260.709 69.1897 260.662 69.1753 260.621 69.1465C260.555 69.1033 260.514 69.0271 260.514 68.9468V43.297L260.602 43.2496C263.719 41.6171 267.225 40.7544 270.746 40.7544H280.657V67.201H270.985C267.495 67.201 264.084 67.8639 260.847 69.1712C260.819 69.1836 260.788 69.1897 260.757 69.1897Z" fill="#EFBC73"/>
<path d="M255.649 45.7481H255.642L245.86 45.2314C245.771 45.2276 245.7 45.1495 245.704 45.0599C245.71 44.9703 245.78 44.8978 245.875 44.9055L255.659 45.4202C255.748 45.424 255.819 45.5022 255.813 45.5918C255.809 45.6794 255.737 45.7481 255.649 45.7481Z" fill="#EFBC73"/>
<path d="M253.534 49.1375H253.525L245.858 48.7342C245.768 48.7304 245.698 48.6527 245.703 48.5619C245.707 48.471 245.779 48.4009 245.875 48.4066L253.542 48.8099C253.633 48.8156 253.703 48.8932 253.697 48.9822C253.693 49.0712 253.621 49.1375 253.534 49.1375Z" fill="#EFBC73"/>
<path d="M255.649 52.7482H255.642L245.86 52.2335C245.771 52.2297 245.7 52.1515 245.704 52.0619C245.71 51.9704 245.78 51.8999 245.875 51.9056L255.659 52.4203C255.748 52.4261 255.819 52.5023 255.813 52.5938C255.809 52.6815 255.737 52.7482 255.649 52.7482Z" fill="#EFBC73"/>
<path d="M255.649 56.2502H255.642L245.86 55.7336C245.771 55.7298 245.7 55.6536 245.704 55.5621C245.71 55.4725 245.78 55.4 245.875 55.4076L255.659 55.9224C255.748 55.9262 255.819 56.0043 255.813 56.0939C255.809 56.1816 255.737 56.2502 255.649 56.2502Z" fill="#EFBC73"/>
<path d="M255.649 59.7503H255.642L245.86 59.2356C245.771 59.2299 245.7 59.1536 245.704 59.0621C245.71 58.9725 245.78 58.9039 245.875 58.9077L255.659 59.4224C255.748 59.4281 255.819 59.5044 255.813 59.5959C255.809 59.6817 255.737 59.7503 255.649 59.7503Z" fill="#EFBC73"/>
<path d="M255.649 63.2504H255.642L245.86 62.7357C245.771 62.7319 245.7 62.6537 245.704 62.5641C245.71 62.4726 245.78 62.404 245.875 62.4078L255.659 62.9225C255.748 62.9282 255.819 63.0045 255.813 63.096C255.809 63.1837 255.737 63.2504 255.649 63.2504Z" fill="#EFBC73"/>
<path d="M266.152 45.7463C266.065 45.7463 265.994 45.6793 265.988 45.592C265.983 45.5006 266.055 45.4234 266.144 45.4193L275.926 44.9035C276.014 44.8974 276.093 44.9685 276.099 45.0599C276.103 45.1492 276.032 45.2264 275.943 45.2325L266.16 45.7463H266.152Z" fill="#EFBC73"/>
<path d="M266.152 49.2474C266.065 49.2474 265.994 49.1804 265.988 49.0931C265.983 49.0017 266.055 48.9245 266.144 48.9205L275.926 48.4046C276.014 48.3985 276.093 48.4696 276.099 48.561C276.103 48.6504 276.032 48.7275 275.943 48.7316L266.16 49.2474H266.152Z" fill="#EFBC73"/>
<path d="M266.152 52.7485C266.065 52.7485 265.994 52.6795 265.988 52.5922C265.983 52.5028 266.055 52.4256 266.144 52.4195L275.926 51.9058C276.014 51.8976 276.093 51.9707 276.099 52.0601C276.103 52.1515 276.032 52.2286 275.943 52.2327L266.16 52.7485H266.152Z" fill="#EFBC73"/>
<path d="M266.152 56.2496C266.065 56.2496 265.994 56.1806 265.988 56.0933C265.983 56.0039 266.055 55.9267 266.144 55.9206L275.926 55.4068C276.014 55.3987 276.093 55.4718 276.099 55.5612C276.103 55.6526 276.032 55.7297 275.943 55.7338L266.16 56.2496H266.152Z" fill="#EFBC73"/>
<path d="M266.151 59.7511C266.065 59.7511 265.992 59.6828 265.986 59.5965C265.982 59.5061 266.053 59.4277 266.143 59.4237L272.322 59.0983C272.406 59.0943 272.488 59.1626 272.494 59.253C272.499 59.3434 272.428 59.4217 272.338 59.4257L266.159 59.7511H266.151Z" fill="#EFBC73"/>
<path d="M266.152 63.2498C266.065 63.2498 265.994 63.1828 265.988 63.0955C265.983 63.0041 266.055 62.9269 266.144 62.9229L275.926 62.407C276.014 62.403 276.093 62.472 276.099 62.5634C276.103 62.6527 276.032 62.7299 275.943 62.736L266.16 63.2498H266.152Z" fill="#EFBC73"/>
<path d="M100.07 31.9213H206.351V232.428H100.07" fill="#F9F3EE"/>
<path d="M105.914 18.3389C98.3206 18.3389 92.1422 24.5169 92.1422 32.1107V230.331C92.1422 237.924 98.3206 244.103 105.914 244.103H199.772C207.368 244.103 213.546 237.924 213.546 230.331V32.1107C213.546 24.5169 207.368 18.3389 199.772 18.3389H105.914ZM199.772 244.431H105.914C98.1396 244.431 91.8144 238.106 91.8144 230.331V32.1107C91.8144 24.335 98.1396 18.0102 105.914 18.0102H199.772C207.548 18.0102 213.873 24.335 213.873 32.1107V230.331C213.873 238.106 207.548 244.431 199.772 244.431Z" fill="#363E44"/>
<path d="M126.307 153.379H112.825V100.003H126.307V153.379Z" fill="white"/>
<path d="M112.515 152.905C112.334 152.905 112.187 152.759 112.187 152.577V99.9556C112.187 99.7752 112.334 99.6277 112.515 99.6277C112.697 99.6277 112.843 99.7752 112.843 99.9556V152.577C112.843 152.759 112.697 152.905 112.515 152.905Z" fill="#D87355"/>
<path d="M126.636 152.905C126.456 152.905 126.308 152.759 126.308 152.577V99.9556C126.308 99.7752 126.456 99.6277 126.636 99.6277C126.818 99.6277 126.964 99.7752 126.964 99.9556V152.577C126.964 152.759 126.818 152.905 126.636 152.905Z" fill="#D87355"/>
<path d="M116.953 136.102C116.863 136.102 116.789 136.028 116.789 135.938V106.005C116.789 105.915 116.863 105.841 116.953 105.841C117.044 105.841 117.117 105.915 117.117 106.005V135.938C117.117 136.028 117.044 136.102 116.953 136.102Z" fill="#EFBC73"/>
<path d="M120.544 122.7C120.454 122.7 120.38 122.626 120.38 122.536V114.013C120.38 113.923 120.454 113.849 120.544 113.849C120.636 113.849 120.708 113.923 120.708 114.013V122.536C120.708 122.626 120.636 122.7 120.544 122.7Z" fill="#EFBC73"/>
<path d="M116.953 143.285C116.863 143.285 116.789 143.211 116.789 143.121V140.487C116.789 140.397 116.863 140.323 116.953 140.323C117.044 140.323 117.117 140.397 117.117 140.487V143.121C117.117 143.211 117.044 143.285 116.953 143.285Z" fill="#EFBC73"/>
<path d="M178.795 94.9579H165.313V41.5811H178.795V94.9579Z" fill="#D87355"/>
<path d="M165.702 94.958H140.839V29.7435H165.702V94.958Z" fill="#EFBC73"/>
<path d="M173.309 70.2435C173.219 70.2435 173.146 70.1701 173.146 70.0797V48.2515C173.146 48.1611 173.219 48.0877 173.309 48.0877C173.4 48.0877 173.475 48.1611 173.475 48.2515V70.0797C173.475 70.1701 173.4 70.2435 173.309 70.2435Z" fill="white"/>
<path d="M170.328 83.0441C170.237 83.0441 170.163 82.9702 170.163 82.88V61.0513C170.163 60.9612 170.237 60.8872 170.328 60.8872C170.42 60.8872 170.492 60.9612 170.492 61.0513V82.88C170.492 82.9702 170.42 83.0441 170.328 83.0441Z" fill="white"/>
<path d="M156.958 60.8352C156.865 60.8352 156.793 60.7615 156.793 60.6723V38.844C156.793 38.7528 156.865 38.6791 156.958 38.6791C157.048 38.6791 157.121 38.7528 157.121 38.844V60.6723C157.121 60.7615 157.048 60.8352 156.958 60.8352Z" fill="white"/>
<path d="M153.376 54.7229C153.286 54.7229 153.211 54.6497 153.211 54.5597V49.3491C153.211 49.2591 153.286 49.186 153.376 49.186C153.466 49.186 153.539 49.2591 153.539 49.3491V54.5597C153.539 54.6497 153.466 54.7229 153.376 54.7229Z" fill="white"/>
<path d="M140.838 94.5802C140.748 94.5802 140.674 94.5063 140.674 94.4145V29.7442C140.674 29.6544 140.748 29.5805 140.838 29.5805C140.928 29.5805 141.002 29.6544 141.002 29.7442V94.4145C141.002 94.5063 140.928 94.5802 140.838 94.5802Z" fill="#D87355"/>
<path d="M165.357 94.5802C165.268 94.5802 165.194 94.5063 165.194 94.4145V29.7442C165.194 29.6544 165.268 29.5805 165.357 29.5805C165.447 29.5805 165.521 29.6544 165.521 29.7442V94.4145C165.521 94.5063 165.447 94.5802 165.357 94.5802Z" fill="#D87355"/>
<path d="M192.529 93.7557H179.047V57.344H192.529V93.7557Z" fill="white"/>
<path d="M178.745 94.5791C178.654 94.5791 178.581 94.5059 178.581 94.4153V40.8631C178.581 40.7725 178.654 40.6993 178.745 40.6993C178.838 40.6993 178.909 40.7725 178.909 40.8631V94.4153C178.909 94.5059 178.838 94.5791 178.745 94.5791Z" fill="#363E44"/>
<path d="M192.69 94.579C192.6 94.579 192.527 94.5059 192.527 94.4145V57.1344C192.527 57.043 192.6 56.9699 192.69 56.9699C192.781 56.9699 192.854 57.043 192.854 57.1344V94.4145C192.854 94.5059 192.781 94.579 192.69 94.579Z" fill="#363E44"/>
<path d="M166.512 212.143H153.031V175.731H166.512V212.143Z" fill="#EFBC73"/>
<path d="M166.669 211.339C166.489 211.339 166.341 211.193 166.341 211.011V175.562C166.341 175.382 166.489 175.234 166.669 175.234C166.849 175.234 166.997 175.382 166.997 175.562V211.011C166.997 211.193 166.849 211.339 166.669 211.339Z" fill="#D87355"/>
<path d="M153.238 211.339C153.056 211.339 152.91 211.193 152.91 211.011V175.562C152.91 175.382 153.056 175.234 153.238 175.234C153.418 175.234 153.566 175.382 153.566 175.562V211.011C153.566 211.193 153.418 211.339 153.238 211.339Z" fill="#D87355"/>
<path d="M126.307 212.143H112.825V158.765H126.307V212.143Z" fill="#EFBC73"/>
<path d="M112.825 211.339C112.644 211.339 112.497 211.193 112.497 211.011V158.765C112.497 158.585 112.644 158.438 112.825 158.438C113.007 158.438 113.152 158.585 113.152 158.765V211.011C113.152 211.193 113.007 211.339 112.825 211.339Z" fill="#D87355"/>
<path d="M126.069 211.339C125.887 211.339 125.741 211.193 125.741 211.011V158.765C125.741 158.585 125.887 158.438 126.069 158.438C126.249 158.438 126.397 158.585 126.397 158.765V211.011C126.397 211.193 126.249 211.339 126.069 211.339Z" fill="#D87355"/>
<path d="M166.295 232.361H139.39C139.3 232.361 139.226 232.288 139.226 232.197C139.226 232.106 139.3 232.033 139.39 232.033H166.295C166.387 232.033 166.459 232.106 166.459 232.197C166.459 232.288 166.387 232.361 166.295 232.361Z" fill="#363E44"/>
<path d="M122.21 93.8076H108.729V57.3948H122.21V93.8076Z" fill="white"/>
<path d="M122.372 94.218C122.28 94.218 122.208 94.1448 122.208 94.0551V56.7739C122.208 56.6824 122.28 56.6092 122.372 56.6092C122.462 56.6092 122.536 56.6824 122.536 56.7739V94.0551C122.536 94.1448 122.462 94.218 122.372 94.218Z" fill="#363E44"/>
<path d="M108.778 94.218C108.687 94.218 108.614 94.1448 108.614 94.0551V56.7739C108.614 56.6824 108.687 56.6092 108.778 56.6092C108.869 56.6092 108.942 56.6824 108.942 56.7739V94.0551C108.942 94.1448 108.869 94.218 108.778 94.218Z" fill="#363E44"/>
<path d="M201.015 94.8376H106.462C106.281 94.8376 106.134 94.69 106.134 94.5097C106.134 94.3277 106.281 94.1818 106.462 94.1818H201.015C201.197 94.1818 201.343 94.3277 201.343 94.5097C201.343 94.69 201.197 94.8376 201.015 94.8376Z" fill="#D87355"/>
<path d="M201.015 153.613H106.462C106.281 153.613 106.134 153.465 106.134 153.285C106.134 153.105 106.281 152.957 106.462 152.957H201.015C201.197 152.957 201.343 153.105 201.343 153.285C201.343 153.465 201.197 153.613 201.015 153.613Z" fill="#D87355"/>
<path d="M186.428 212.388H106.462C106.281 212.388 106.134 212.243 106.134 212.061C106.134 211.88 106.281 211.733 106.462 211.733H186.428C186.609 211.733 186.756 211.88 186.756 212.061C186.756 212.243 186.609 212.388 186.428 212.388Z" fill="#D87355"/>
<path d="M171.393 115.94C171.393 115.94 164.529 99.0293 162.966 90.3918C161.889 84.4327 160.051 85.23 159.295 86.69C158.594 88.043 158.884 90.1657 158.874 91.9139C158.871 92.5266 158.838 93.0943 158.795 93.581C158.757 94.0176 158.147 94.0901 158.008 93.6742C157.188 91.2288 155.588 86.8781 155.383 80.8224C155.345 79.7317 155.26 77.5158 154.758 75.8263C154.189 74.6614 152.483 74.6821 152.004 75.8884C151.924 76.092 151.852 76.3285 151.793 76.5994C151.793 76.5994 151.764 76.1662 151.621 75.6192C151.17 73.8917 148.854 73.6173 147.991 75.1791C147.703 75.702 147.43 76.325 147.256 77.0308C147.256 77.0308 146.825 75.7417 145.378 76.4596C143.929 77.1775 144.01 80.8293 144.01 80.8293C144.01 80.8293 140.769 83.3524 141.682 89.7705C142.595 96.1886 148.328 112.723 152.525 124.438L171.393 115.94" fill="#9E6C5A"/>
<path d="M152.644 90.8302C152.573 90.8302 152.507 90.7845 152.487 90.7134C151.266 86.5556 151.217 82.1184 151.393 79.1304C151.398 79.0406 151.471 78.9695 151.566 78.9763C151.657 78.9814 151.727 79.0593 151.72 79.149C151.547 82.1116 151.595 86.5082 152.802 90.6203C152.827 90.7067 152.776 90.7981 152.69 90.8235C152.675 90.8285 152.66 90.8302 152.644 90.8302Z" fill="#363E44"/>
<path d="M148.925 91.8126C148.858 91.8126 148.796 91.7707 148.771 91.7037C147.592 88.3719 147.208 84.6163 147.094 82.0517C147.091 81.9613 147.16 81.8842 147.252 81.8809C147.341 81.8742 147.418 81.9462 147.421 82.0367C147.535 84.5795 147.915 88.3016 149.081 91.5949C149.109 91.6803 149.066 91.7724 148.98 91.8026C148.962 91.8093 148.944 91.8126 148.925 91.8126" fill="#363E44"/>
<path d="M145.447 92.3407C145.381 92.3407 145.316 92.2993 145.293 92.2315C144.638 90.3476 144.193 88.085 143.971 85.5065C143.963 85.4171 144.031 85.3377 144.12 85.3295C144.213 85.3212 144.289 85.389 144.297 85.4783C144.517 88.0304 144.957 90.2666 145.602 92.124C145.632 92.2083 145.586 92.3026 145.501 92.3324C145.483 92.339 145.465 92.3407 145.447 92.3407" fill="#363E44"/>
<path d="M218.014 115.115C218.014 115.115 204.053 132.493 220.835 137.542L222.468 147.789L236.43 147.939L232.864 131.454C232.864 131.454 227.073 118.681 218.014 115.115Z" fill="#9E6C5A"/>
<path d="M167.36 103.481C167.36 103.481 183.022 137.864 220.92 145.633L250.538 148.31C261.61 149.312 271.423 155.878 276.53 165.753C283.224 178.694 290.708 200.568 292.601 235.348H272.293C272.293 235.348 271.841 204.659 260.561 188.864L259.657 210.076H215.43V193.828C215.43 193.828 207.759 187.51 205.954 173.069C205.954 173.069 162.631 162.691 146.836 110.791L167.36 103.481" fill="#EFBC73"/>
<path d="M292.601 235.347L293.15 250.264C293.15 250.264 294.595 254.603 297.816 258.236C298.317 258.801 298.629 259.513 298.708 260.265C298.792 261.095 298.621 262.079 297.612 262.721C297.612 262.721 296.837 263.133 295.168 262.806C295.168 262.806 295.698 264.557 294.109 265.739C292.521 266.919 290.16 265.169 290.16 265.169C290.16 265.169 289.956 266.757 288.368 267.287C286.779 267.816 285.11 266.675 285.11 266.675C285.11 266.675 284.336 269.259 280.182 267.433C279.577 267.167 279.043 266.78 278.598 266.292C277.168 264.72 274.356 260.457 272.01 249.77L272.294 235.347H292.601" fill="#9E6C5A"/>
<path d="M277.493 260.831C277.436 260.831 277.38 260.801 277.351 260.747C277.305 260.669 277.334 260.569 277.413 260.524C278.399 259.967 279.605 258.885 279.752 256.887C279.846 255.646 279.89 254.647 279.923 253.844C279.992 252.196 280.036 251.203 280.421 250.174C280.586 249.734 280.956 249.234 281.425 248.603C282.616 246.996 284.247 244.796 283.981 241.603C283.972 241.513 284.041 241.433 284.131 241.426C284.222 241.414 284.299 241.485 284.308 241.575C284.585 244.893 282.841 247.242 281.687 248.798C281.254 249.385 280.877 249.892 280.729 250.288C280.361 251.269 280.323 252.188 280.252 253.857C280.217 254.662 280.175 255.665 280.081 256.911C279.921 259.054 278.63 260.213 277.574 260.81C277.549 260.824 277.52 260.831 277.493 260.831" fill="#363E44"/>
<path d="M293.851 261.712C293.808 261.712 293.763 261.695 293.733 261.661C288.82 256.525 287.553 249.848 287.542 249.78C287.525 249.692 287.585 249.605 287.672 249.59C287.762 249.572 287.848 249.633 287.863 249.722C287.876 249.787 289.126 256.371 293.969 261.435C294.031 261.5 294.028 261.603 293.964 261.666C293.932 261.697 293.891 261.712 293.851 261.712" fill="#363E44"/>
<path d="M288.228 263.26C288.18 263.26 288.134 263.241 288.102 263.202C286.516 261.251 284.521 258.139 284.024 254.398C284.014 254.308 284.077 254.226 284.165 254.215C284.256 254.202 284.338 254.265 284.351 254.356C284.835 258.02 286.798 261.075 288.357 262.993C288.414 263.064 288.403 263.167 288.332 263.224C288.302 263.249 288.266 263.26 288.228 263.26" fill="#363E44"/>
<path d="M283.054 264.183C283.002 264.183 282.948 264.159 282.917 264.111C281.824 262.475 280.39 259.901 279.757 256.934C279.739 256.846 279.795 256.759 279.884 256.739C279.971 256.719 280.058 256.777 280.079 256.865C280.699 259.782 282.112 262.316 283.189 263.929C283.241 264.005 283.22 264.106 283.143 264.155C283.116 264.175 283.085 264.183 283.054 264.183" fill="#363E44"/>
<path d="M259.659 210.075C259.659 210.075 283.802 225.493 273.316 262.191L281.399 299.618H196.451C196.451 299.618 198.06 285.688 215.432 210.075H259.659" fill="#D87355"/>
<path d="M217.032 113.976C217.032 113.976 215.387 124.203 228.628 125.389C228.628 125.389 227.168 131.142 233.193 133.149C233.193 133.149 241.959 131.142 238.58 118.449C235.201 105.758 217.214 109.592 217.032 113.976Z" fill="#363E44"/>
<path d="M237.851 117.272C237.851 117.272 250.942 114.303 254.131 133.437C257.321 152.576 255.518 172.684 255.518 172.684H236.935C236.935 172.684 248.724 141.343 238.6 122.9L236.533 118.5L237.851 117.272" fill="#363E44"/>
<path d="M234.044 171.765C234.021 171.765 233.997 171.759 233.973 171.748C233.892 171.71 233.858 171.611 233.896 171.53C233.924 171.47 236.739 165.54 239.007 156.951C241.102 149.031 243.148 137.165 241.008 125.621C240.992 125.533 241.049 125.449 241.138 125.432C241.228 125.416 241.312 125.474 241.329 125.562C243.482 137.169 241.426 149.086 239.324 157.042C237.045 165.658 234.22 171.611 234.193 171.671C234.165 171.73 234.107 171.765 234.044 171.765" fill="#363E44"/>
<path d="M220.835 137.706C220.753 137.706 220.68 137.64 220.673 137.556C220.665 137.464 220.732 137.387 220.821 137.378C220.852 137.376 223.964 137.113 225.767 135.577C225.836 135.518 225.939 135.525 225.998 135.594C226.057 135.663 226.048 135.768 225.979 135.825C224.095 137.432 220.98 137.694 220.849 137.706H220.835Z" fill="#363E44"/>
<path d="M215.777 132.14C215.705 132.14 215.638 132.091 215.618 132.018C215.597 131.931 215.649 131.84 215.736 131.817C215.752 131.813 217.367 131.383 217.875 130.317C217.915 130.235 218.014 130.201 218.096 130.238C218.176 130.277 218.211 130.376 218.173 130.456C217.598 131.662 215.891 132.115 215.819 132.135L215.777 132.14" fill="#363E44"/>
<path d="M226.368 124.434C224.416 124.434 218.063 124.223 215.331 121.574C214.229 120.506 213.744 119.357 213.89 118.157C214.213 115.494 217.501 113.546 217.639 113.466C217.719 113.419 217.817 113.445 217.862 113.525C217.907 113.601 217.881 113.701 217.805 113.748C217.772 113.767 214.52 115.694 214.217 118.196C214.084 119.29 214.535 120.345 215.559 121.34C218.639 124.326 226.845 124.101 226.93 124.1H226.934C227.024 124.1 227.095 124.169 227.098 124.257C227.101 124.349 227.029 124.425 226.939 124.427C226.892 124.428 226.688 124.434 226.368 124.434" fill="#363E44"/>
<path d="M223.248 126.105C223.248 124.518 224.533 123.233 226.12 123.233C227.705 123.233 228.991 124.518 228.991 126.105C228.991 127.69 227.705 128.975 226.12 128.975C224.533 128.975 223.248 127.69 223.248 126.105Z" fill="#9E6C5A"/>
<path d="M227.642 126.266C227.552 126.266 227.479 126.193 227.479 126.103C227.479 125.354 226.87 124.745 226.121 124.745C226.031 124.745 225.958 124.672 225.958 124.582C225.958 124.49 226.031 124.417 226.121 124.417C227.051 124.417 227.807 125.174 227.807 126.103C227.807 126.193 227.732 126.266 227.642 126.266" fill="#363E44"/>
<path d="M239.348 124.661C239.301 124.661 239.254 124.64 239.222 124.6C236.297 121.014 238.08 117.127 238.098 117.089C238.138 117.008 238.233 116.973 238.317 117.009C238.398 117.049 238.432 117.147 238.394 117.228C238.376 117.266 236.685 120.969 239.474 124.392C239.532 124.463 239.523 124.566 239.453 124.624C239.422 124.647 239.384 124.661 239.348 124.661" fill="#EFBC73"/>
<path d="M213.406 175.091L213.367 175.086L205.915 173.228C205.827 173.207 205.774 173.118 205.796 173.029C205.817 172.94 205.906 172.889 205.994 172.909L213.444 174.768C213.533 174.79 213.586 174.88 213.564 174.966C213.546 175.042 213.479 175.091 213.406 175.091" fill="#363E44"/>
<path d="M260.917 189.065H260.905C260.814 189.059 260.746 188.982 260.754 188.89L261.79 173.973C261.796 173.882 261.876 173.818 261.966 173.821C262.057 173.828 262.125 173.905 262.119 173.996L261.079 188.913C261.075 189 261.003 189.065 260.917 189.065Z" fill="#363E44"/>
<path d="M241.047 299.782L241.013 299.777C240.926 299.759 240.869 299.672 240.887 299.584L248.468 264.466L248.53 264.429C256.019 259.959 258.465 253.83 259.198 249.474C259.995 244.754 259.009 241.049 258.999 241.013C258.976 240.925 259.026 240.834 259.113 240.812C259.2 240.787 259.291 240.839 259.314 240.926C259.324 240.964 260.33 244.738 259.521 249.53C258.779 253.941 256.307 260.143 248.758 264.674L241.208 299.652C241.192 299.73 241.123 299.782 241.047 299.782" fill="#363E44"/>
<path d="M60.1534 79.541C60.1534 79.541 77.4485 61.6537 80.0443 60.4932C80.0443 60.4932 82.3715 59.6618 81.4037 62.2358C80.5753 64.437 77.8123 65.8304 77.2966 67.3257C77.2966 67.3257 82.9562 61.8302 85.4299 59.9674C86.7153 58.9997 88.2619 58.5613 88.5339 59.3235C88.8504 60.2094 87.8966 61.5846 87.2438 62.3323C85.8634 63.9094 83.9466 66.0978 82.0875 68.5154C82.0206 68.6027 82.1554 68.6736 82.2383 68.6027C85.3548 65.8995 91.7373 58.4048 94.3373 59.7637C94.3373 59.7637 95.312 60.4186 92.9803 63.1709C91.2261 65.241 88.5029 67.7714 86.8719 69.9779C86.8186 70.0507 86.9298 70.138 86.9998 70.0816C90.2173 67.4967 91.515 66.3525 94.0572 64.8681C94.9051 64.3733 97.0362 63.4019 97.7652 64.0604C98.3726 64.608 97.7416 66.1778 96.5406 67.7714C94.2826 70.7693 91.2049 73.7562 88.201 77.4781C87.8996 77.851 88.3109 78.3694 88.7471 78.1693C90.3282 77.4435 92.9479 75.7063 94.5382 75.3861C97.6796 74.7513 95.4428 78.3294 93.4 80.5906C91.3571 82.8517 74.9105 94.2193 74.9105 94.2193L60.1534 79.541Z" fill="#9E6C5A"/>
<path d="M75.9762 68.7203C75.9366 68.7203 75.897 68.7061 75.8654 68.6779C75.7987 68.616 75.7943 68.5117 75.8557 68.4445L77.2969 66.8767C77.3584 66.8095 77.462 66.806 77.5286 66.8679C77.5951 66.928 77.5995 67.0323 77.5382 67.0994L76.0969 68.6672C76.0646 68.7026 76.0206 68.7203 75.9762 68.7203" fill="#363E44"/>
<path d="M80.0444 71.0508C80.0064 71.0508 79.9684 71.0385 79.9375 71.0121C79.8688 70.9523 79.861 70.8486 79.9199 70.78L81.9681 68.394C82.0276 68.3254 82.131 68.3184 82.1994 68.3764C82.2681 68.4362 82.2758 68.54 82.2169 68.6085L80.1687 70.9945C80.1362 71.0314 80.0905 71.0508 80.0444 71.0508Z" fill="#363E44"/>
<path d="M84.6323 72.5557C84.5901 72.5557 84.5484 72.54 84.5164 72.5085C84.4523 72.4439 84.4521 72.3408 84.5161 72.2761L86.6257 70.16C86.6898 70.0954 86.7934 70.0954 86.8574 70.1583C86.9215 70.2229 86.9218 70.3261 86.8577 70.3907L84.7483 72.5068C84.7163 72.54 84.6744 72.5557 84.6323 72.5557" fill="#363E44"/>
<path d="M111.416 196.17C111.416 196.17 140.502 188.218 143.866 184.905C144.218 184.559 144.836 183.944 145.828 183.393C149.498 181.349 152.394 183.452 157.235 183.067C162.728 182.628 165.572 179.272 166.561 180.272C167.249 180.969 166.533 182.536 164.026 184.943C166.141 183.334 169.105 181.277 169.99 182.447C170.941 183.856 167.743 186.682 165.725 188.297C168.167 186.341 170.051 186.033 170.382 186.81C170.903 188.031 169.362 189.988 166.033 192.446C168.807 191.392 169.636 191.549 169.761 192.306C169.99 193.69 167.074 196.031 164.354 197.395C161.292 198.933 155.341 199.757 153.63 200.423C150.103 201.793 129.721 210.521 128.541 210.6C121.733 211.056 111.416 196.17 111.416 196.17" fill="#9E6C5A"/>
<path d="M152.213 184.667C155.795 180.557 156.216 178.315 155.546 177.769C154.421 176.849 150.416 179.044 144.425 184.392C146.725 184.659 149.912 184.4 152.213 184.667Z" fill="#9E6C5A"/>
<path d="M150.394 183.002C150.31 183.002 150.238 182.938 150.231 182.852C150.223 182.762 150.29 182.683 150.381 182.675C152.063 182.533 153.31 182.513 154.31 182.615C154.399 182.624 154.464 182.705 154.456 182.795C154.446 182.885 154.366 182.949 154.276 182.941C153.299 182.841 152.069 182.861 150.409 183.002H150.394" fill="#363E44"/>
<path d="M158.569 187.087C158.487 187.087 158.415 187.024 158.405 186.943C158.395 186.852 158.459 186.77 158.549 186.759C159.198 186.68 159.843 186.543 160.464 186.347C161.366 186.064 162.228 185.659 163.028 185.144C163.103 185.095 163.205 185.116 163.254 185.193C163.303 185.269 163.282 185.37 163.205 185.42C162.38 185.951 161.492 186.367 160.561 186.661C159.921 186.861 159.257 187.005 158.589 187.085L158.569 187.087" fill="#363E44"/>
<path d="M160.574 190.175C160.492 190.175 160.421 190.115 160.412 190.031C160.402 189.941 160.466 189.859 160.554 189.849C161.203 189.77 161.848 189.631 162.469 189.436C163.371 189.152 164.235 188.747 165.035 188.233C165.11 188.183 165.212 188.206 165.261 188.282C165.31 188.357 165.287 188.459 165.212 188.508C164.387 189.039 163.497 189.456 162.567 189.749C161.928 189.951 161.264 190.093 160.595 190.174L160.574 190.175" fill="#363E44"/>
<path d="M160.646 194.656C160.564 194.656 160.494 194.593 160.484 194.511C160.474 194.421 160.538 194.339 160.628 194.328C161.275 194.251 161.92 194.111 162.541 193.916C163.443 193.633 164.307 193.228 165.107 192.713C165.182 192.664 165.284 192.687 165.333 192.762C165.382 192.838 165.359 192.939 165.284 192.988C164.459 193.52 163.569 193.936 162.639 194.229C161.998 194.431 161.335 194.574 160.666 194.654L160.646 194.656Z" fill="#363E44"/>
<path d="M0.365196 187.724C0.365196 187.724 -2.8366 161.737 22.656 123.46C41.6479 94.9432 59.29 77.7431 59.29 77.7431L77.9461 94.9211C77.9461 94.9211 45.8447 132.301 35.3969 172.544C24.9493 212.788 0.365196 187.724 0.365196 187.724" fill="#8B865C"/>
<path d="M6.53419 239.649C6.53419 239.649 3.11993 250.334 1.22222 272.249C0.58976 279.554 1.97976 290.661 2.53533 299.629H72.6451L63.3467 239.649H6.53419Z" fill="#9E6C5A"/>
<path d="M33.7938 299.029C33.721 299.029 33.6548 298.98 33.6355 298.907C28.8145 280.587 28.2756 264.439 28.2707 264.279C28.2681 264.188 28.3392 264.113 28.4297 264.11C28.5191 264.111 28.5959 264.179 28.5986 264.269C28.6033 264.429 29.1415 280.541 33.9523 298.823C33.9755 298.911 33.9233 299 33.8356 299.023L33.7938 299.029" fill="#363E44"/>
<path d="M51.4777 144.824C49.7864 138.565 48.2487 135.065 44.8101 133.111C40.1888 130.483 34.8291 132.836 34.2732 133.09C33.9183 133.251 28.7345 135.252 27.4686 140.698C26.2186 146.077 27.8603 151.929 31.9493 155.565L30.9909 167.726C30.6832 171.629 33.5988 175.044 37.5029 175.351L38.3872 175.421C42.2913 175.729 45.7055 172.813 46.0132 168.91L46.6534 160.785C49.1464 160.774 51.1623 160.21 52.0464 159.018C53.6301 156.882 53.4695 152.197 51.4777 144.824Z" fill="#9E6C5A"/>
<path d="M46.7802 160.765H46.7717C46.6812 160.761 46.6117 160.683 46.6162 160.593L46.7717 157.613C46.7764 157.523 46.8541 157.451 46.9438 157.459C47.0343 157.462 47.1038 157.539 47.0992 157.631L46.9438 160.611C46.9392 160.698 46.8669 160.765 46.7802 160.765Z" fill="#363E44"/>
<path d="M43.4264 151.554C43.3776 151.554 43.3294 151.533 43.2971 151.492C42.9882 151.095 42.7166 150.734 42.4292 150.351C42.1951 150.039 41.9537 149.718 41.6799 149.362C41.6248 149.29 41.6381 149.188 41.71 149.133C41.7817 149.077 41.8846 149.09 41.9399 149.162C42.2145 149.52 42.4564 149.843 42.6914 150.154C42.9779 150.536 43.2484 150.895 43.5555 151.29C43.6112 151.361 43.5986 151.464 43.5273 151.52C43.4973 151.543 43.4617 151.554 43.4264 151.554" fill="#363E44"/>
<path d="M19.6606 142.767C19.2046 139.549 21.4441 136.57 24.6626 136.113L24.6777 136.111C24.2942 135.516 24.0264 134.833 23.9205 134.085C23.5277 131.315 25.4562 128.749 28.228 128.356C28.8072 128.274 29.3756 128.298 29.9183 128.405C29.6946 125.747 31.5777 123.344 34.2523 122.965C35.7638 122.751 37.211 123.231 38.2806 124.157C39.09 122.392 40.7523 121.061 42.8182 120.769C45.9429 120.326 48.8426 122.416 49.4375 125.48C49.5848 125.446 49.7334 125.415 49.8859 125.393C52.6577 125.001 55.2229 126.929 55.6157 129.701C56.0084 132.472 54.08 135.038 51.3082 135.431C51.2284 135.442 51.149 135.446 51.0695 135.452C51.3807 140.395 46.2757 141.674 45.9784 141.792C46.8674 143.954 47.7561 146.116 48.6449 148.279C47.8221 148.638 46.8461 149.123 46.0234 149.482C45.2105 147.193 44.1597 146.405 42.8144 146.349C40.6962 146.262 39.0172 148.413 39.0979 150.465C39.1718 152.339 40.0956 154.187 41.999 154.983C39.9105 155.313 37.7152 155.597 35.419 155.816C34.2213 155.931 33.048 156.023 31.9016 156.095C31.1502 155.736 26.3092 153.316 24.6642 147.769C22.1338 147.411 20.0372 145.424 19.6606 142.767" fill="#363E44"/>
<path d="M51.3897 167.506L55.0617 167.97C66.4055 169.659 76.4058 173.636 84.8027 180.675L103.578 196.415L131.015 187.4L140.761 209.37L99.3378 223.433C94.425 225.41 88.8846 225.079 84.2422 222.531L71.5868 214.956L74.234 239.649H6.53412L0.569357 191.742C-1.31359 178.903 7.31591 169.002 20.2589 168.067L31.5087 167.256C38.1309 166.777 44.7817 166.862 51.3897 167.506Z" fill="#8B865C"/>
<path d="M20.2585 168.231C20.1735 168.231 20.1016 168.165 20.0952 168.08C20.0885 167.99 20.1562 167.91 20.2465 167.903C20.4362 167.89 39.2824 166.506 46.1883 166.874C46.2786 166.879 46.3481 166.957 46.3432 167.047C46.3383 167.138 46.2641 167.21 46.1708 167.202C39.2867 166.834 20.4603 168.216 20.2708 168.231H20.2585" fill="#363E44"/>
<path d="M71.5081 215.197C71.4817 215.197 71.455 215.192 71.43 215.177L62.3235 210.231C62.244 210.188 62.2145 210.088 62.2577 210.01C62.301 209.929 62.4 209.9 62.48 209.944L71.5866 214.89C71.6661 214.933 71.6956 215.033 71.6523 215.111C71.6225 215.165 71.5663 215.197 71.5081 215.197Z" fill="#363E44"/>
</svg>
