<svg id="date-undo" xmlns="http://www.w3.org/2000/svg" viewBox="0 0 24 24" class="icon line" width="48" height="48"><path id="primary" d="M20,21H4a1,1,0,0,1-1-1V9H21V20A1,1,0,0,1,20,21ZM21,5a1,1,0,0,0-1-1H4A1,1,0,0,0,3,5V9H21ZM16,3V6M8,3V6" style="fill: none; stroke: rgb(158, 108, 90); stroke-linecap: round; stroke-linejoin: round; stroke-width: 1;"></path><path id="primary-2" data-name="primary" d="M9,17a4,4,0,0,1,8,0" style="fill: none; stroke: rgb(158, 108, 90); stroke-linecap: round; stroke-linejoin: round; stroke-width: 1;"></path><polyline id="primary-3" data-name="primary" points="7 14 9 17 12 16" style="fill: none; stroke: rgb(158, 108, 90); stroke-linecap: round; stroke-linejoin: round; stroke-width: 1;"></polyline></svg>